<?xml version="1.0" encoding="utf-8"?>
<!-- Generator: Adobe Illustrator 16.0.0, SVG Export Plug-In . SVG Version: 6.00 Build 0)  -->
<!DOCTYPE svg PUBLIC "-//W3C//DTD SVG 1.1//EN" "http://www.w3.org/Graphics/SVG/1.1/DTD/svg11.dtd">
<svg version="1.1" id="Capa_1" xmlns="http://www.w3.org/2000/svg" xmlns:xlink="http://www.w3.org/1999/xlink" x="0px" y="0px"
	 width="595.281px" height="841.891px" viewBox="0 0 595.281 841.891" enable-background="new 0 0 595.281 841.891"
	 xml:space="preserve">
<g>
	<circle fill="#0172EA" cx="298.341" cy="421.996" r="279.082"/>
</g>
<g>
	<path fill="#FFFFFF" d="M253.87,591.125c10.855,0.7,21.71,1.751,33.966,2.802c9.805-1.051,21.711-1.751,32.916-3.853
		c14.355-2.45,27.313-8.754,37.117-19.959c10.855-12.256,15.758-26.963,18.209-42.72c1.75-11.206,3.15-22.761,4.551-34.316
		c1.402-11.905,3.152-24.161,4.553-36.067c1.752-13.656,3.502-27.313,5.252-40.969c1.402-11.906,3.152-24.162,4.553-36.417
		c1.4-11.905,3.152-23.811,4.553-35.717c1.4-11.905,3.15-23.811,4.551-35.717c1.402-11.906,3.152-23.811,4.553-35.717
		c0.701-6.303,1.752-12.256,2.451-18.559c0.35-2.801-0.699-5.252-4.201-4.552c-16.809-0.35-33.967-0.7-51.125-0.7
		c-3.852,0-6.303,2.101-6.652,5.953c-1.752,10.505-2.801,21.01-4.203,31.865c-1.75,11.905-3.15,24.161-4.551,36.417
		s-3.152,24.862-4.553,37.118c-1.4,11.905-3.152,24.161-4.553,36.417s-3.15,24.862-4.551,37.117
		c-1.402,11.906-3.152,24.161-4.553,36.417s-2.801,24.862-4.553,37.118c-1.051,9.104-2.1,18.559-4.201,27.663
		c-1.752,9.454-8.055,15.757-17.859,17.858c-4.552,1.05-9.104,1.4-13.656,1.75c-7.704,0.351-15.407,0.351-23.111,0.701
		c-3.502,0-6.653,1.05-7.003,4.902c-1.05,8.754-1.751,17.157-2.801,25.912C248.617,589.024,250.718,590.775,253.87,591.125z"/>
	<path fill="#FFFFFF" d="M252.119,512.688c0.35-3.151,0.7-5.953,1.051-9.104c1.4-12.256,3.151-24.512,4.552-36.768
		c1.751-11.905,3.152-23.811,4.552-35.717c1.401-12.255,3.151-24.861,4.552-37.467c1.401-11.906,3.151-24.162,4.552-36.417
		c1.4-11.905,3.151-24.161,4.552-36.067c1.4-12.255,3.151-24.511,4.552-36.767c1.401-10.155,2.801-20.31,3.852-30.464
		c0.7-4.202-1.051-5.603-5.252-5.603c-8.754,0-17.158,0-25.562,0c-8.754,0-17.158,0.35-25.912,0c-3.152,0-4.902,1.4-5.253,4.552
		c-0.7,6.303-1.4,12.605-2.101,18.909c-1.751,12.256-3.152,24.862-4.552,37.468c-1.401,12.606-3.151,25.562-4.552,38.168
		c-1.4,12.606-3.151,25.562-4.552,38.518c-1.4,10.855-2.451,21.36-3.852,32.215c-1.401,10.505-2.451,21.01-3.852,31.515
		c-1.4,11.206-2.451,22.061-3.852,32.916c-1.051,10.505-2.101,20.659-3.502,31.164c-0.7,4.202,0.701,6.653,5.253,6.653
		c15.757,0.351,31.865,0.351,47.972-0.7C249.317,519.691,251.769,517.24,252.119,512.688z"/>
</g>
</svg>
